<svg width="512" height="512" viewBox="0 0 512 512" fill="none" xmlns="http://www.w3.org/2000/svg">
<rect width="512" height="512" rx="256" fill="url(#paint0_linear_300_5)"/>
<g clip-path="url(#clip0_300_5)">
<path d="M343.895 204.823V307.296C343.895 319.417 334.058 329.254 321.937 329.254C309.816 329.254 299.978 319.417 299.978 307.296V204.823C299.978 192.701 309.816 182.864 321.937 182.864C334.058 182.864 343.895 192.701 343.895 204.823ZM248.742 80.3906C236.62 80.3906 226.783 90.2281 226.783 102.349V409.769C226.783 421.89 236.62 431.728 248.742 431.728C260.863 431.728 270.7 421.89 270.7 409.769V102.349C270.7 90.2281 260.863 80.3906 248.742 80.3906ZM395.132 138.947C383.011 138.947 373.173 148.784 373.173 160.905V351.213C373.173 363.334 383.011 373.172 395.132 373.172C407.253 373.172 417.091 363.334 417.091 351.213V160.905C417.091 148.784 407.253 138.947 395.132 138.947ZM175.546 153.586C163.425 153.586 153.588 163.423 153.588 175.544V336.574C153.588 348.695 163.425 358.532 175.546 358.532C187.667 358.532 197.505 348.695 197.505 336.574V175.544C197.505 163.423 187.667 153.586 175.546 153.586ZM102.351 212.142C90.23 212.142 80.3926 221.979 80.3926 234.101V278.018C80.3926 290.139 90.23 299.976 102.351 299.976C114.472 299.976 124.31 290.139 124.31 278.018V234.101C124.31 221.979 114.472 212.142 102.351 212.142Z" fill="white"/>
</g>
<defs>
<linearGradient id="paint0_linear_300_5" x1="256" y1="0" x2="256" y2="512" gradientUnits="userSpaceOnUse">
<stop stop-color="#00C8FF"/>
<stop offset="1" stop-color="#0074C7"/>
</linearGradient>
<clipPath id="clip0_300_5">
<rect width="351.337" height="351.337" fill="white" transform="translate(80.3926 80.3906)"/>
</clipPath>
</defs>
</svg>
