<svg width="512" height="512" viewBox="0 0 512 512" fill="none" xmlns="http://www.w3.org/2000/svg">
<rect width="512" height="512" fill="#00B2FF"/>
<rect width="512" height="512" fill="url(#paint0_radial_440_7)"/>
<rect width="512" height="512" fill="url(#paint1_linear_440_7)"/>
<path d="M324.602 276.185C339.254 261.707 354.102 244.352 354.102 221.643C354.102 207.178 348.404 193.305 338.262 183.076C328.119 172.848 314.363 167.102 300.019 167.102C282.712 167.102 270.519 172.06 255.769 186.935C241.019 172.06 228.826 167.102 211.519 167.102C197.175 167.102 183.419 172.848 173.276 183.076C163.134 193.305 157.436 207.178 157.436 221.643C157.436 244.452 172.186 261.806 186.936 276.185L255.769 345.602L324.602 276.185Z" fill="white" stroke="white" stroke-width="2" stroke-linecap="round" stroke-linejoin="round"/>
<defs>
<radialGradient id="paint0_radial_440_7" cx="0" cy="0" r="1" gradientUnits="userSpaceOnUse" gradientTransform="translate(256 256) rotate(87.9145) scale(256.17)">
<stop stop-color="#00D9FF"/>
<stop offset="1" stop-color="white" stop-opacity="0"/>
</radialGradient>
<linearGradient id="paint1_linear_440_7" x1="0" y1="0" x2="512" y2="512" gradientUnits="userSpaceOnUse">
<stop stop-color="#8A00F4"/>
<stop offset="1" stop-color="#737373" stop-opacity="0"/>
</linearGradient>
</defs>
</svg>
